<?xml version="1.0" encoding="UTF-8" standalone="no"?>
<!DOCTYPE svg PUBLIC "-//W3C//DTD SVG 1.1//EN" "http://www.w3.org/Graphics/SVG/1.1/DTD/svg11.dtd">
<svg width="100%" height="100%" viewBox="0 0 652 350" version="1.1" xmlns="http://www.w3.org/2000/svg" xmlns:xlink="http://www.w3.org/1999/xlink" xml:space="preserve" xmlns:serif="http://www.serif.com/" style="fill-rule:evenodd;clip-rule:evenodd;stroke-linejoin:round;stroke-miterlimit:2;">
    <g transform="matrix(1,0,0,1,0,-151)">
        <path d="M475.1,403.9L166.8,403.9C162.9,403.9 159.7,400.7 159.7,396.8C159.7,392.9 162.9,389.7 166.8,389.7L475.1,389.7C479,389.7 482.2,392.9 482.2,396.8C482.2,400.7 479,403.9 475.1,403.9Z" style="fill-rule:nonzero;"/>
    </g>
    <g transform="matrix(1,0,0,1,0,-151)">
        <path d="M609.4,271.1L365.2,271.1C361.3,271.1 358.1,267.9 358.1,264C358.1,260.1 361.3,256.9 365.2,256.9L609.4,256.9C613.3,256.9 616.5,260.1 616.5,264C616.5,267.9 613.4,271.1 609.4,271.1Z" style="fill-rule:nonzero;"/>
    </g>
    <g transform="matrix(1,0,0,1,0,-151)">
        <circle cx="457.7" cy="284" r="8.1"/>
    </g>
    <g transform="matrix(1,0,0,1,0,-151)">
        <path d="M370.9,295.1C364.1,295.1 357.8,298.4 352.5,303.2C352.9,300.3 351.4,297.3 348.7,295.9C345.2,294.2 341,295.6 339.2,299.1L268.8,439.6C267.1,443.1 268.5,447.3 272,449.1C273,449.6 274.1,449.9 275.2,449.9C277.8,449.9 280.3,448.5 281.5,446L322.9,363.4C323.9,370.4 333,373.4 338.6,373.4C353.4,373.4 367.6,363.2 374.1,350.1L383.4,331.3L386.6,324.9C388.6,320.9 389.5,316.7 389.5,312.9C389.4,306.1 385.7,295.1 370.9,295.1ZM372.9,320.1L361.3,343.4C357.3,351.6 348.2,358.9 339.8,358.9C331.4,358.9 334,351.1 335.9,347.3L347.1,324.5C351.1,316.3 361.6,309 368.9,309C376.2,309.1 374.7,316.4 372.9,320.1Z" style="fill-rule:nonzero;"/>
    </g>
    <g transform="matrix(1,0,0,1,0,-151)">
        <path d="M242.8,299.1C240.7,303.1 220.9,343.6 220.9,343.6C216.9,351.8 208.3,359.1 201.1,359.1C194.9,359.1 197.5,350.3 199,347.1C199.1,346.9 199.2,346.8 199.2,346.6L218.8,306.9C219.5,305.6 220,304.1 220.3,302.5C221.2,296.5 210.8,291.3 206.8,299.2C204.7,303.2 184.9,343.7 184.9,343.7C180.9,351.9 170.9,359.2 163.6,359.2C157.4,359.2 161.3,350.4 162.8,347.2C169.3,334 183.4,305.4 183.4,305.4C185.1,301.9 183.7,297.7 180.2,295.9C176.7,294.2 172.5,295.6 170.7,299.1C170.7,299.1 151.5,337.9 147,347.1C143.8,353.5 143.8,360.1 147,365.2C150.2,370.3 156.2,373.3 163.5,373.3C170.9,373.3 179,369.8 185.8,364.3C188.1,369.3 192.8,373.3 201.4,373.3C213.9,373.3 227,363.1 233.5,350L254.8,306.9C255.5,305.6 256,304.1 256.3,302.5C257.2,296.3 246.8,291.1 242.8,299.1Z" style="fill-rule:nonzero;"/>
    </g>
    <g transform="matrix(1,0,0,1,0,-151)">
        <path d="M345.9,449.8C344.8,449.8 343.7,449.6 342.7,449C339.2,447.3 337.8,443 339.5,439.5L420.8,277.7C421.9,275.4 423.3,272.4 424.8,268.9C434.7,246.8 451.4,209.7 476.8,209.7C495,209.7 495.1,223.3 495.1,226.5C495.1,229.6 494.1,239.9 487.1,239.9C482.3,239.9 481.2,236.7 481.2,234.3C481.2,229.6 483.9,223.3 477.2,223.3C461,223.3 445.3,258.2 437.8,274.6C436.2,278.2 434.7,281.4 433.4,284L352,445.8C350.9,448.2 348.5,449.8 345.9,449.8Z" style="fill-rule:nonzero;"/>
    </g>
    <g transform="matrix(1,0,0,1,0,-151)">
        <path d="M326.4,340.1C322.5,340.1 318.7,339.8 316.9,343.3C314.2,348.8 307.6,358.9 300.1,358.9C297.3,358.9 297.4,355.2 300.1,349.6C300.4,348.8 321,307.3 321,307.3C322.7,303.8 321.3,299.6 317.8,297.8C314.3,296.1 310.1,297.5 308.3,301C308.3,301 307.9,302 307,303.6C305.4,298.8 301.4,295 293.9,295C279.1,295 265.8,305.2 259.2,318.3L249.9,337.1L246.7,343.5C244.7,347.5 243.8,351.7 243.8,355.5C243.8,362.2 247.4,373.2 262.2,373.2C270.2,373.2 277.2,368.7 283.2,362.7C284.4,369.1 288.9,373.2 296.3,373.2C315.6,373.1 329.4,340.1 326.4,340.1ZM264.4,359C257.1,359 258.6,351.7 260.5,348L272.1,324.7C276.1,316.5 285.2,309.2 293.6,309.2C302,309.2 299.4,317 297.5,320.8L286.3,343.6C282.1,351.8 271.7,359 264.4,359Z" style="fill-rule:nonzero;"/>
    </g>
    <g transform="matrix(1,0,0,1,0,-151)">
        <path d="M73.3,440.3C58.5,440.3 44.8,434 36.7,422.5C24.4,405.5 26.6,381.1 42.5,355.6C54.4,336.6 67.4,323.8 67.9,323.2C71.2,320 76.3,320 79.5,323.3C82.7,326.6 82.7,331.7 79.4,334.9C79.1,335.2 67.1,347.1 56.4,364.2C44.1,383.8 41.8,401.6 50,412.9C56.7,422.1 69.3,425.9 82.4,422.7C102.9,417.7 117.6,398 121.9,369.8C123.4,347.6 116.1,333.4 108.4,318.5C100.7,303.6 92.7,288.1 94.3,265.5C97.1,227.8 119.2,213.2 128.5,208.7C142.9,201.7 159,202.3 170.6,210.1C181.4,217.4 186.7,229.8 185.6,244.9C183.9,268.9 169.9,283.4 169.4,284C166.2,287.3 161.1,287.3 157.8,284.1C154.5,280.9 154.5,275.8 157.7,272.5C157.8,272.4 168.1,261.5 169.4,243.6C172.2,204.1 114.5,215.7 110.6,266.7C109.3,284.7 115.6,296.9 122.9,311C131,326.6 140.1,344.4 138.2,371.4C138.2,371.6 138.2,371.8 138.1,372.1C130.4,424.2 96.5,436.3 86.2,438.7C81.8,439.7 77.4,440.3 73.3,440.3Z" style="fill-rule:nonzero;"/>
    </g>
    <g transform="matrix(1,0,0,1,0,-151)">
        <path d="M477.9,373.1C469.8,373.1 463.2,370.6 458.6,365.8C449,370.4 440.3,373 434.3,373C434,373 433.5,373 433.2,372.9C424.3,372.4 420,367.8 418.2,364.9C414.9,359.8 414.7,353 417.8,346.6C424.7,331.9 441,300 441.7,298.7C443.4,295.2 447.8,293.9 451.3,295.6C454.8,297.3 456.1,301.7 454.4,305.2C454.3,305.5 441.2,330.9 433.5,346.8C429.7,354.8 429.7,358.7 435.4,358.7C438.1,358.7 445.6,356.3 452.7,352.8C451.1,343.1 453.9,331 460.5,319.5C469.8,303.8 483.5,294.4 497,294.8C503.2,294.9 508.3,297.6 511.2,302.2C513.1,305.1 515.3,311.6 510.7,321.1C503.8,334.7 488.5,348.2 472.7,357.9C474.1,358.3 475.9,358.7 478,358.7C496.3,358.7 526.6,340.7 551.7,289.8C553.4,286.3 557.7,284.9 561.2,286.6C564.7,288.3 542.3,330.5 528.9,344.9C513.3,362.1 494.2,373.1 477.9,373.1ZM480.3,317.2C477.2,320.1 474.6,323.6 472.7,327.1C469.1,333.2 466.9,339.9 466.4,345.4C476.3,339.1 486.2,331.1 492.8,322.9C504.2,308.6 494.5,303.1 480.3,317.2Z" style="fill-rule:nonzero;"/>
    </g>
    <g transform="matrix(1,0,0,1,0,-151)">
        <path d="M625.5,334.4C624.4,331.2 623.1,327.9 621.7,324.4C617.9,314.8 613.6,304 613.6,294.3C613.6,291 611.4,288.2 608.3,287.4C605.2,286.6 601.9,288.1 600.3,291C600.1,291.3 581.2,326.6 560.2,346.5C549.5,356.5 542.9,359.3 539.9,359.3C531.8,359.3 543.7,338.5 548.8,327.9C564.9,295.1 592,240.6 592.4,239.8C594.1,236.3 592.7,232.1 589.2,230.3C585.7,228.6 581.5,230 579.7,233.5C577.7,237.5 530.9,332.1 524,346.7C519.7,355.6 521.8,373.5 538.5,373.5C563.4,373.5 591.9,331.3 599.8,319.4C601.4,316.9 603.3,311.9 603.3,311.9C603.3,311.9 603.6,316.4 604.5,319.1C605.8,322.8 607.2,326.3 608.5,329.7C609.8,333.1 611.1,336.1 612.1,339.1C613.7,343.9 614.6,348.6 614.5,352.6C614.5,372.9 595.2,371.5 595.2,362.6C595.2,354.6 602.3,351.4 602.3,346C602.3,344.3 601.3,340.3 596.3,340.3C589.5,340.3 582.1,351.2 582.1,362.6C582.2,389.7 628.7,390.8 628.7,352.4C628.6,346.7 627.5,340.6 625.5,334.4Z" style="fill-rule:nonzero;"/>
    </g>
</svg>
